<svg id="Componente_31_2" data-name="Componente 31 – 2" xmlns="http://www.w3.org/2000/svg" width="214" height="214" viewBox="0 0 214 214">
  <g id="Trazado_1" data-name="Trazado 1" fill="#0d0101">
    <path d="M 107 213.5 C 99.77378845214844 213.5 92.55226135253906 212.7720336914062 85.53600311279297 211.3362884521484 C 78.69831848144531 209.9371032714844 71.97254943847656 207.8493194580078 65.54555511474609 205.1309204101562 C 59.23508071899414 202.4618225097656 53.14860534667969 199.1581878662109 47.45518493652344 195.311767578125 C 41.81571197509766 191.5018157958984 36.51260375976562 187.1263427734375 31.6931324005127 182.3068695068359 C 26.8736572265625 177.4873962402344 22.49818420410156 172.1842956542969 18.68823623657227 166.5448150634766 C 14.84181594848633 160.8513946533203 11.53818416595459 154.7649230957031 8.869078636169434 148.4544525146484 C 6.150684356689453 142.0274505615234 4.062894821166992 135.3016815185547 2.663710594177246 128.4640045166016 C 1.227973699569702 121.4477386474609 0.5 114.2262115478516 0.5 107 C 0.5 99.77378845214844 1.227973699569702 92.55226135253906 2.663710594177246 85.53600311279297 C 4.062894821166992 78.69831848144531 6.150684356689453 71.97254943847656 8.869078636169434 65.54555511474609 C 11.53818416595459 59.23508071899414 14.84181594848633 53.14860534667969 18.68823623657227 47.45518493652344 C 22.49818420410156 41.81571197509766 26.8736572265625 36.51260375976562 31.6931324005127 31.6931324005127 C 36.51260375976562 26.8736572265625 41.81571197509766 22.49818420410156 47.45518493652344 18.68823623657227 C 53.14860534667969 14.84181594848633 59.23508071899414 11.53818416595459 65.54555511474609 8.869078636169434 C 71.97254943847656 6.150684356689453 78.69831848144531 4.062894821166992 85.53600311279297 2.663710594177246 C 92.55226135253906 1.227973699569702 99.77378845214844 0.5 107 0.5 C 114.2262115478516 0.5 121.4477386474609 1.227973699569702 128.4640045166016 2.663710594177246 C 135.3016815185547 4.062894821166992 142.0274505615234 6.150684356689453 148.4544525146484 8.869078636169434 C 154.7649230957031 11.53818416595459 160.8513946533203 14.84181594848633 166.5448150634766 18.68823623657227 C 172.1842956542969 22.49818420410156 177.4873962402344 26.8736572265625 182.3068695068359 31.6931324005127 C 187.1263427734375 36.51260375976562 191.5018157958984 41.81571197509766 195.311767578125 47.45518493652344 C 199.1581878662109 53.14860534667969 202.4618225097656 59.23508071899414 205.1309204101562 65.54555511474609 C 207.8493194580078 71.97254943847656 209.9371032714844 78.69831848144531 211.3362884521484 85.53600311279297 C 212.7720336914062 92.55226135253906 213.5 99.77378845214844 213.5 107 C 213.5 114.2262115478516 212.7720336914062 121.4477386474609 211.3362884521484 128.4640045166016 C 209.9371032714844 135.3016815185547 207.8493194580078 142.0274505615234 205.1309204101562 148.4544525146484 C 202.4618225097656 154.7649230957031 199.1581878662109 160.8513946533203 195.311767578125 166.5448150634766 C 191.5018157958984 172.1842956542969 187.1263427734375 177.4873962402344 182.3068695068359 182.3068695068359 C 177.4873962402344 187.1263427734375 172.1842956542969 191.5018157958984 166.5448150634766 195.311767578125 C 160.8513946533203 199.1581878662109 154.7649230957031 202.4618225097656 148.4544525146484 205.1309204101562 C 142.0274505615234 207.8493194580078 135.3016815185547 209.9371032714844 128.4640045166016 211.3362884521484 C 121.4477386474609 212.7720336914062 114.2262115478516 213.5 107 213.5 Z" stroke="none"/>
    <path d="M 107 1 C 99.80738830566406 1 92.61958312988281 1.72454833984375 85.63624572753906 3.153549194335938 C 78.83088684082031 4.546142578125 72.13694763183594 6.624053955078125 65.74032592773438 9.32958984375 C 59.45960998535156 11.98611450195312 53.40177917480469 15.27421569824219 47.73507690429688 19.10252380371094 C 42.12199401855469 22.89466857910156 36.84364318847656 27.24972534179688 32.04666137695312 32.04666137695312 C 27.24972534179688 36.84364318847656 22.89466857910156 42.12199401855469 19.10252380371094 47.73507690429688 C 15.27421569824219 53.40177917480469 11.98611450195312 59.45960998535156 9.32958984375 65.74032592773438 C 6.624053955078125 72.13694763183594 4.546142578125 78.83088684082031 3.153549194335938 85.63624572753906 C 1.72454833984375 92.61958312988281 1 99.80738830566406 1 107 C 1 114.1926116943359 1.72454833984375 121.3804168701172 3.153549194335938 128.3637390136719 C 4.546142578125 135.1691131591797 6.624053955078125 141.8630523681641 9.32958984375 148.2596740722656 C 11.98611450195312 154.5403900146484 15.27421569824219 160.5982208251953 19.10252380371094 166.2649230957031 C 22.89466857910156 171.8779907226562 27.24972534179688 177.1563568115234 32.04666137695312 181.9533386230469 C 36.84364318847656 186.7502746582031 42.12199401855469 191.1053314208984 47.73507690429688 194.8974761962891 C 53.40177917480469 198.7257843017578 59.45960998535156 202.0138854980469 65.74032592773438 204.67041015625 C 72.13694763183594 207.3759460449219 78.83088684082031 209.453857421875 85.63624572753906 210.8464508056641 C 92.61958312988281 212.2754516601562 99.80738830566406 213 107 213 C 114.1926116943359 213 121.3804168701172 212.2754516601562 128.3637390136719 210.8464508056641 C 135.1691131591797 209.453857421875 141.8630523681641 207.3759460449219 148.2596740722656 204.67041015625 C 154.5403900146484 202.0138854980469 160.5982208251953 198.7257843017578 166.2649230957031 194.8974761962891 C 171.8779907226562 191.1053314208984 177.1563568115234 186.7502746582031 181.9533386230469 181.9533386230469 C 186.7502746582031 177.1563568115234 191.1053314208984 171.8779907226562 194.8974761962891 166.2649230957031 C 198.7257843017578 160.5982208251953 202.0138854980469 154.5403900146484 204.67041015625 148.2596740722656 C 207.3759460449219 141.8630523681641 209.453857421875 135.1691131591797 210.8464508056641 128.3637390136719 C 212.2754516601562 121.3804168701172 213 114.1926116943359 213 107 C 213 99.80738830566406 212.2754516601562 92.61958312988281 210.8464508056641 85.63624572753906 C 209.453857421875 78.83088684082031 207.3759460449219 72.13694763183594 204.67041015625 65.74032592773438 C 202.0138854980469 59.45960998535156 198.7257843017578 53.40177917480469 194.8974761962891 47.73507690429688 C 191.1053314208984 42.12199401855469 186.7502746582031 36.84364318847656 181.9533386230469 32.04666137695312 C 177.1563568115234 27.24972534179688 171.8779907226562 22.89466857910156 166.2649230957031 19.10252380371094 C 160.5982208251953 15.27421569824219 154.5403900146484 11.98611450195312 148.2596740722656 9.32958984375 C 141.8630523681641 6.624053955078125 135.1691131591797 4.546142578125 128.3637390136719 3.153549194335938 C 121.3804168701172 1.72454833984375 114.1926116943359 1 107 1 M 107 0 C 166.0944671630859 0 214 47.90553283691406 214 107 C 214 166.0944671630859 166.0944671630859 214 107 214 C 47.90553283691406 214 0 166.0944671630859 0 107 C 0 47.90553283691406 47.90553283691406 0 107 0 Z" stroke="none" fill="#0d0101"/>
  </g>
  <text id="Findy" transform="translate(32 170)" fill="#fff3f3" font-size="60" font-family="PalatinoLinotype-Roman, Palatino Linotype"><tspan x="0" y="0">Findy</tspan></text>
  <g id="Elipse_2" data-name="Elipse 2" transform="translate(86 17)" fill="#fff" stroke="#707070" stroke-width="1">
    <circle cx="24.5" cy="24.5" r="24.5" stroke="none"/>
    <circle cx="24.5" cy="24.5" r="24" fill="none"/>
  </g>
  <g id="Rectángulo_1" data-name="Rectángulo 1" transform="translate(105 62)" fill="#fff" stroke="#fff" stroke-width="1">
    <rect width="11" height="26" stroke="none"/>
    <rect x="0.5" y="0.5" width="10" height="25" fill="none"/>
  </g>
  <g id="Rectángulo_2" data-name="Rectángulo 2" transform="translate(100 79)" fill="#fff" stroke="#fff" stroke-width="1">
    <rect width="21" height="51" stroke="none"/>
    <rect x="0.5" y="0.5" width="20" height="50" fill="none"/>
  </g>
  <g id="Elipse_3" data-name="Elipse 3" transform="translate(92 24)" fill="#0d0101" stroke="#fff" stroke-width="1">
    <circle cx="19" cy="19" r="19" stroke="none"/>
    <circle cx="19" cy="19" r="18.5" fill="none"/>
  </g>
</svg>
